# xmcd
#
# Track frame offsets:
#	150
#	20887
#	33715
#	51430
#	66387
#	77917
#	91572
#	106467
#	121779
#	138604
#	153275
#	166780
#	184767
#	206666
#	233117
#
# Disc length: 4357 seconds
#
# Revision: 0
# Processed by: cddbd v1.5.1PL0 Copyright (c) Steve Scherf et al.
# Submitted via: audiograbber 1.83.01
#
DISCID=cd11030f
DTITLE=Burrito Deluxe - The Whole Enchilada
DYEAR=2004
DGENRE=Country
TTITLE0=You Got Gold
TTITLE1=The Letter
TTITLE2=Woman Like You
TTITLE3=Sister
TTITLE4=Ezekiel's Wheel
TTITLE5=Zydeco Ball
TTITLE6=Everywhere I Go
TTITLE7=All I Had Left (Left With You)
TTITLE8=Memphis Money
TTITLE9=Way Back In The Mountains
TTITLE10=Baton Rouge
TTITLE11=Last Letter Home
TTITLE12=Rex Bob Lowenstein
TTITLE13=Good Night
TTITLE14=Data Track
EXTD=
EXTT0=
EXTT1=
EXTT2=
EXTT3=
EXTT4=
EXTT5=
EXTT6=
EXTT7=
EXTT8=
EXTT9=
EXTT10=
EXTT11=
EXTT12=
EXTT13=
EXTT14=
PLAYORDER=
